<svg xmlns="http://www.w3.org/2000/svg" xmlns:xlink="http://www.w3.org/1999/xlink" viewBox="0 0 46 75" version="1.1" x="0px" y="0px"><title>53 -Clipboard- (Solid)</title><desc>Created with Sketch.</desc><g stroke="none" stroke-width="1" fill="none" fill-rule="evenodd"><g transform="translate(-367.000000, -940.000000)" fill="#000000"><g transform="translate(367.000000, 940.000000)"><path d="M2,51 L2,7 L9,7 L9,8 C9,9.103 9.897,10 11,10 L28.986,10 C30.097,10 31,9.103 31,8 L31,7 L38,7 L38,16.586 L35.708,14.294 C35.706,14.292 35.704,14.291 35.703,14.29 C35.619,14.207 35.521,14.146 35.418,14.098 C35.406,14.092 35.397,14.083 35.385,14.077 C35.366,14.07 35.345,14.071 35.326,14.064 C35.238,14.034 35.148,14.016 35.055,14.011 C35.036,14.01 35.019,14 35,14 L8,14 C7.448,14 7,14.447 7,15 L7,51 L2,51 Z M36,17.414 L38.293,19.707 L42.586,24 L36,24 L36,17.414 Z M45.987,24.938 C45.982,24.848 45.964,24.76 45.934,24.674 C45.923,24.643 45.915,24.61 45.9,24.58 C45.853,24.477 45.792,24.38 45.709,24.297 C45.709,24.295 45.708,24.293 45.706,24.292 L40,18.586 L40,6 C40,5.447 39.552,5 39,5 L31,5 C31,3.897 30.103,3 29,3 L26,3 C26,1.346 24.654,0 23,0 L17.001,0 C15.346,0 14,1.346 14,3 L11,3 C9.897,3 9,3.897 9,5 L1,5 C0.448,5 0,5.447 0,6 L0,52 C0,52.553 0.448,53 1,53 L7,53 L7,59 C7,59.553 7.448,60 8,60 L45,60 C45.552,60 46,59.553 46,59 L46,25 C46,24.979 45.989,24.96 45.987,24.938 L45.987,24.938 Z"/></g></g></g><text x="0" y="75" fill="#000000" font-size="5px" font-weight="bold" font-family="'Helvetica Neue', Helvetica, Arial-Unicode, Arial, Sans-serif">Created by Smashicons</text><text x="0" y="80" fill="#000000" font-size="5px" font-weight="bold" font-family="'Helvetica Neue', Helvetica, Arial-Unicode, Arial, Sans-serif">from the Noun Project</text></svg>